<svg width="269" height="270" xmlns="http://www.w3.org/2000/svg" xmlns:xlink="http://www.w3.org/1999/xlink" xml:space="preserve" overflow="hidden"><defs><clipPath id="clip0"><rect x="103" y="167" width="269" height="270"/></clipPath></defs><g clip-path="url(#clip0)" transform="translate(-103 -167)"><path d="M253.869 101.716 239.298 96.3917 239.298 65.849 253.869 59.6844 155.235 23.2573 35.3063 65.2885C23.8177 70.8927 23.5375 86.3042 23.5375 98.9135 23.5375 103.117 24.0979 107.32 24.9385 111.243 15.4115 117.407 15.1312 131.698 15.1312 143.747 15.1312 153.554 17.3729 162.521 23.5375 168.125 22.1365 172.889 22.9771 178.773 22.9771 185.778 22.9771 198.387 26.3396 209.876 37.5479 213.799L115.446 246.023 253.308 188.86 238.737 183.536 238.737 152.714 253.308 146.549 230.892 138.143 230.892 111.243 253.869 101.716ZM38.6688 84.9031 116.567 115.446 228.37 70.3323 228.37 94.4302 116.567 140.945 38.6688 110.122 38.6688 84.9031ZM227.809 181.575 116.006 227.809 37.8281 196.986 37.8281 175.13 107.6 203.711 228.09 156.076 227.809 181.575ZM219.964 139.544 108.16 185.778 30.2625 154.955 30.2625 129.736 110.402 161.68 220.244 115.726 220.244 139.544Z" fill="#FFFFFF" transform="matrix(1 0 0 1.00372 103 167)"/></g></svg>