<svg version="1.2" xmlns="http://www.w3.org/2000/svg" viewBox="0 0 813 882" width="813" height="882">
	<title>no-notifs-svg</title>
	<defs>
		<clipPath clipPathUnits="userSpaceOnUse" id="cp1">
			<path d="m0 0h813v882h-813z"/>
		</clipPath>
	</defs>
	<style>
		.s0 { fill: none;stroke: #7030a0;stroke-width: 22.9 } 
	</style>
	<g id="Clip-Path" clip-path="url(#cp1)">
		<g id="Layer">
			<path id="Layer" class="s0" d="m165.7 137.8c2.4 0.4 4.7 1.7 6.3 3.9l87.7 120.2 16-19.4c28.5-28.5 67.8-46.1 111.2-46.1 86.8 0 157.2 70.4 157.2 157.3q0 8.1-0.8 16l-0.2 1 4.7 23.4c11.4 47.5 27.8 93.3 48.9 136.7l14.6 27.6 20.8 7.1c64.7 24.5 108.2 58.6 117.5 96.8l1.9 15.5-1.5 4.5 0.7-4.5c0-33.6-91.8-62.5-222.6-74.8l-20.7-1.7 102.7 140.6 32.3-6.3c32.7-7.1 59.3-15.7 77.9-25.2l8.2-4.6-7.4 4.6-3.4 1.4-2.2 1.3-6.6 2.5-9.1 3.9-6.2 2.1-4.4 1.7-7 1.9-8.5 2.8-10 2.5-6.9 2-6.4 1.3-7.2 1.8-14.9 2.9-9.5 2-4.9 0.8-3.8 0.7 72.5 99.3c3.1 4.3 2.2 10.3-2.1 13.4l-19.1 14c-4.3 3.1-10.3 2.1-13.5-2.2l-85.7-117.5-33.4 3.7-63.5 4.4-6.6 12.3c-4.1 5.9-8.8 11.4-14 16.2l-12.8 9 14-10.9c4.4-4.3 8.5-9.1 12-14.3l6.7-12.3 63.5-4.4 34-3.8-110.2-150.9-28.5-1q-18.4-0.4-37.3-0.4c-188.8 0-344.1 31.9-362.7 72.9l-0.1 0.4 0.9-7.6c8.8-35.8 47.5-68 105.7-92.1l33.3-12 14.5-27.4c21.1-43.4 37.5-89.2 48.8-136.7l4.4-21.6-0.4-2.8q-0.8-7.9-0.8-16c0-16.3 2.5-32 7-46.8l1-2.5-100.3-137.4c-3.2-4.3-2.2-10.4 2.1-13.5l19-13.9c2.2-1.6 4.8-2.1 7.2-1.8zm229.6 670.2l-10.9 0.7h0.3c7.7 0 15.2-0.9 22.3-2.8l4.7-1.8zm-11.4-178.7c49.2 0 89.1 39.9 89.1 89.2 0 49.2-39.9 89.1-89.1 89.1-12.3 0-24-2.5-34.7-7l-14.1-7.6-2.6-1.9-10.5-8.7-7.8-9-3.8-4.6-6.5-12h-0.2l-1.9-3.6c-4.5-10.7-7-22.4-7-34.7 0-49.3 39.9-89.2 89.1-89.2zm-33.5 172.2l8.2 3.2-1.5-0.3zm80.4-6.1l-3.6 2.5-9 3.6zm1-0.8l-0.8 0.7-0.2 0.1zm297.5-89.4l-0.4 0.3-0.5 0.3zm19.3-19.4l-0.3 0.8-1.2 3.6c-2.4 3.5-5.8 6.9-10.2 10.3l-1.3 0.8-0.7 0.6-4.9 2.8-0.7 0.5 6.8-4.7c4.4-3.4 7.8-6.8 10.3-10.3zm1.2-3.6l-0.4 1.8-0.8 1.8zm-726.7-12.4l-0.9 7.1-0.2 0.8c0 33.7 91.9 62.5 222.7 74.9l58.9 4 6.2 11.6 0.5 0.5 0.3 0.6 3.5 4 6.6 8.1 1.2 0.9 2.7 3.1 7.8 5.6 1.5 1.2 1.1 0.6 7 5 8.2 3.6-8.9-3.6c-12.7-6.8-23.4-16.7-31.5-28.5l-6.8-12.6-59-4.1c-130.9-12.4-222.7-41.2-222.7-74.9zm394.9 131.6l-4.1 2-2.5 0.6zm-56.5 4.4c7.1 1.8 14.6 2.8 22.3 2.8h0.3l-10.9-0.7-14.8-3.3zm20.3-794.3c4.7-0.3 9.5-0.1 14.4 0.6 39 5.7 66 41.9 60.3 80.9-5.7 39-41.9 66-80.8 60.3-39-5.7-66-41.9-60.3-80.9 4.9-34.1 33.3-59 66.4-60.9z"/>
			<path id="Layer" class="s0" d="m158.9 139c4.3-3.1 10.3-2.2 13.4 2.1l510.5 699.3c3.1 4.3 2.1 10.3-2.1 13.4l-19.1 14c-4.3 3.1-10.3 2.2-13.4-2.1l-510.5-699.3c-3.1-4.3-2.2-10.3 2.1-13.4z"/>
		</g>
	</g>
</svg>