<svg width="1054" height="1131" xmlns="http://www.w3.org/2000/svg" xmlns:xlink="http://www.w3.org/1999/xlink" xml:space="preserve" overflow="hidden"><defs><clipPath id="clip0"><rect x="2332" y="770" width="1054" height="1131"/></clipPath></defs><g clip-path="url(#clip0)" transform="translate(-2332 -770)"><path d="M2577.9 1442.38C2564.1 1461.11 2547.42 1477.54 2528.48 1491.05L2501.12 1452.7C2516.01 1442.08 2529.13 1429.16 2539.97 1414.44Z" fill="#483D8B" fill-rule="evenodd"/><path d="M190.117 2.06422C213.167-1.11426 236.575-0.619366 259.469 3.53049L251.067 49.8838C233.07 46.6218 214.67 46.2327 196.552 48.7312Z" fill="#483D8B" fill-rule="evenodd" transform="matrix(-0.697503 -0.716582 -0.716582 0.697503 2710.3 1378.15)"/><path d="M3067 1003C3083.02 1003 3096 1015.98 3096 1032L3096 1525C3096 1541.02 3083.02 1554 3067 1554L3067 1554C3050.98 1554 3038 1541.02 3038 1525L3038 1032C3038 1015.98 3050.98 1003 3067 1003Z" fill="#483D8B" fill-rule="evenodd"/><path d="M2803 944.5C2803 928.76 2815.76 916 2831.5 916L3162.5 916C3178.24 916 3191 928.76 3191 944.5L3191 944.5C3191 960.24 3178.24 973 3162.5 973L2831.5 973C2815.76 973 2803 960.24 2803 944.5Z" fill="#483D8B" fill-rule="evenodd"/><path d="M3162 770C3178.02 770 3191 782.984 3191 799L3191 943C3191 959.016 3178.02 972 3162 972L3162 972C3145.98 972 3133 959.016 3133 943L3133 799C3133 782.984 3145.98 770 3162 770Z" fill="#483D8B" fill-rule="evenodd"/><path d="M3376.72 1011.47C3365.46 1022.73 3347.2 1022.73 3335.94 1011.47L3145.22 820.754C3133.96 809.493 3133.96 791.234 3145.22 779.973L3145.22 779.973C3156.49 768.711 3174.74 768.711 3186.01 779.973L3376.72 970.685C3387.98 981.946 3387.98 1000.2 3376.72 1011.47Z" fill="#483D8B" fill-rule="evenodd"/><path d="M3143.34 1206.25C3132.07 1194.99 3132.07 1176.73 3143.34 1165.47L3333.71 975.098C3344.97 963.836 3363.23 963.836 3374.49 975.098L3374.49 975.098C3385.75 986.359 3385.75 1004.62 3374.49 1015.88L3184.12 1206.25C3172.86 1217.51 3154.6 1217.51 3143.34 1206.25Z" fill="#483D8B" fill-rule="evenodd"/><path d="M3038 1032C3038 1015.98 3050.98 1003 3067 1003L3162 1003C3178.02 1003 3191 1015.98 3191 1032L3191 1032C3191 1048.02 3178.02 1061 3162 1061L3067 1061C3050.98 1061 3038 1048.02 3038 1032Z" fill="#483D8B" fill-rule="evenodd"/><path d="M2401 944.5C2401 928.208 2414.21 915 2430.5 915L2662.5 915C2678.79 915 2692 928.208 2692 944.5L2692 944.5C2692 960.793 2678.79 974 2662.5 974L2430.5 974C2414.21 974 2401 960.792 2401 944.5Z" fill="#483D8B" fill-rule="evenodd"/><path d="M2429.5 915C2445.24 915 2458 927.76 2458 943.5L2458 1256.5C2458 1272.24 2445.24 1285 2429.5 1285L2429.5 1285C2413.76 1285 2401 1272.24 2401 1256.5L2401 943.5C2401 927.76 2413.76 915 2429.5 915Z" fill="#483D8B" fill-rule="evenodd"/><path d="M2648 1349C2648 1332.98 2660.98 1320 2677 1320L2970 1320C2986.02 1320 2999 1332.98 2999 1349L2999 1349C2999 1365.02 2986.02 1378 2970 1378L2677 1378C2660.98 1378 2648 1365.02 2648 1349Z" fill="#483D8B" fill-rule="evenodd"/><path d="M2535 1428.5C2535 1415.52 2545.52 1405 2558.5 1405L2985.5 1405C2998.48 1405 3009 1415.52 3009 1428.5L3009 1428.5C3009 1441.48 2998.48 1452 2985.5 1452L2558.5 1452C2545.52 1452 2535 1441.48 2535 1428.5Z" fill="#483D8B" fill-rule="evenodd"/><path d="M2429.5 1420C2445.24 1420 2458 1432.76 2458 1448.5L2458 1872.5C2458 1888.24 2445.24 1901 2429.5 1901L2429.5 1901C2413.76 1901 2401 1888.24 2401 1872.5L2401 1448.5C2401 1432.76 2413.76 1420 2429.5 1420Z" fill="#483D8B" fill-rule="evenodd"/><path d="M3067 1667C3083.02 1667 3096 1679.98 3096 1696L3096 1872C3096 1888.02 3083.02 1901 3067 1901L3067 1901C3050.98 1901 3038 1888.02 3038 1872L3038 1696C3038 1679.98 3050.98 1667 3067 1667Z" fill="#483D8B" fill-rule="evenodd"/><path d="M2410 1872C2410 1855.98 2422.98 1843 2439 1843L3067 1843C3083.02 1843 3096 1855.98 3096 1872L3096 1872C3096 1888.02 3083.02 1901 3067 1901L2439 1901C2422.98 1901 2410 1888.02 2410 1872Z" fill="#483D8B" fill-rule="evenodd"/><path d="M2973.26 1757.86C2891.65 1706.23 2867.45 1598.41 2919.22 1517.03 2932.44 1496.25 2949.92 1478.49 2970.51 1464.92L3000.97 1510.87C2945.72 1547.19 2930.49 1621.23 2966.95 1676.25 2976.29 1690.35 2988.53 1702.31 3002.85 1711.34Z" fill="#483D8B" fill-rule="evenodd"/><path d="M2516.5 1448C2529.48 1448 2540 1458.52 2540 1471.5L2540 1789.5C2540 1802.48 2529.48 1813 2516.5 1813L2516.5 1813C2503.52 1813 2493 1802.48 2493 1789.5L2493 1471.5C2493 1458.52 2503.52 1448 2516.5 1448Z" fill="#483D8B" fill-rule="evenodd"/><path d="M2495 1789C2495 1775.75 2505.75 1765 2519 1765L2987 1765C3000.25 1765 3011 1775.75 3011 1789L3011 1789C3011 1802.25 3000.25 1813 2987 1813L2519 1813C2505.75 1813 2495 1802.25 2495 1789Z" fill="#483D8B" fill-rule="evenodd"/><path d="M2987.5 1706C3000.48 1706 3011 1716.52 3011 1729.5L3011 1782.5C3011 1795.48 3000.48 1806 2987.5 1806L2987.5 1806C2974.52 1806 2964 1795.48 2964 1782.5L2964 1729.5C2964 1716.52 2974.52 1706 2987.5 1706Z" fill="#483D8B" fill-rule="evenodd"/><path d="M2987.5 1406C3000.48 1406 3011 1416.52 3011 1429.5L3011 1491.5C3011 1504.48 3000.48 1515 2987.5 1515L2987.5 1515C2974.52 1515 2964 1504.48 2964 1491.5L2964 1429.5C2964 1416.52 2974.52 1406 2987.5 1406Z" fill="#483D8B" fill-rule="evenodd"/><path d="M2478 1348.5C2478 1332.76 2490.76 1320 2506.5 1320L2579.5 1320C2595.24 1320 2608 1332.76 2608 1348.5L2608 1348.5C2608 1364.24 2595.24 1377 2579.5 1377L2506.5 1377C2490.76 1377 2478 1364.24 2478 1348.5Z" fill="#483D8B" fill-rule="evenodd"/><path d="M0 24.0003C-3.77166e-15 10.7453 10.7452-3.77169e-15 24.0001-7.54337e-15L450 0C463.255-7.54337e-15 474.001 10.7453 474.001 24.0003L474 24.0003C474 37.2553 463.255 48.0006 450 48.0006L24.0001 48.0001C10.7452 48.0001 0 37.2548 0 23.9998Z" fill="#483D8B" fill-rule="evenodd" transform="matrix(1 0 0 -1 2533 1281)"/><path d="M0 24C-3.94671e-15 10.7452 10.7451-7.89346e-15 23.9999-7.89346e-15L224 0C237.255-3.94673e-15 248 10.7452 248 24L248 24C248 37.2549 237.255 48 224 48L23.9999 47.9998C10.7451 47.9998-3.94671e-15 37.2546 0 23.9997Z" fill="#483D8B" fill-rule="evenodd" transform="matrix(-1.83697e-16 -1 -1 1.83697e-16 2539 1238)"/><path d="M0 23.5002C-4.56737e-15 10.5214 10.5214 0 23.5002 0L263.5 0C276.479-4.56737e-15 287 10.5214 287 23.5002L287 23.5002C287 36.479 276.479 47.0004 263.5 47.0004L23.5002 47.0001C10.5214 47.0001 0 36.4787 0 23.4999Z" fill="#483D8B" fill-rule="evenodd" transform="matrix(-1.83697e-16 -1 -1 1.83697e-16 3007 1277)"/><path d="M0 23.5001C-4.74243e-15 10.5214 10.5214-4.74243e-15 23.5001-9.48486e-15L125.5 0C138.479-4.74243e-15 149 10.5214 149 23.5001L149 23.5001C149 36.4789 138.479 47.0003 125.5 47.0003L23.5001 47.0001C10.5214 47.0001 0 36.4787 0 23.5Z" fill="#483D8B" fill-rule="evenodd" transform="matrix(-1 1.22465e-16 1.22465e-16 1 2644 990)"/><path d="M215.363 345.018C121.401 367.374 27.1058 309.326 4.7494 215.363-1.44111 189.345-1.58176 162.254 4.33828 136.172L52.1456 147.024C36.7591 214.81 79.2376 282.235 147.024 297.621 165.794 301.882 185.291 301.781 204.016 297.326Z" fill="#483D8B" fill-rule="evenodd" transform="matrix(-0.697503 -0.716582 -0.716582 0.697503 2993.27 935.825)"/><path d="M0 24.0001C-4.90156e-15 10.7452 10.7452 0 24 0L130 0C143.255-4.90157e-15 154 10.7452 154 24.0001L154 24.0001C154 37.2549 143.255 48.0001 130 48.0001L24 48.0001C10.7452 48.0001 0 37.2549 0 24.0001Z" fill="#483D8B" fill-rule="evenodd" transform="matrix(-1 1.22465e-16 1.22465e-16 1 3003 990)"/><path d="M3162 1013C3178.02 1013 3191 1025.98 3191 1042L3191 1183C3191 1199.02 3178.02 1212 3162 1212L3162 1212C3145.98 1212 3133 1199.02 3133 1183L3133 1042C3133 1025.98 3145.98 1013 3162 1013Z" fill="#483D8B" fill-rule="evenodd"/><path d="M2652 938C2652 884.981 2694.98 842 2748 842 2801.02 842 2844 884.981 2844 938 2844 991.019 2801.02 1034 2748 1034 2694.98 1034 2652 991.019 2652 938ZM2701.81 938C2701.81 963.51 2722.49 984.19 2748 984.19 2773.51 984.19 2794.19 963.51 2794.19 938 2794.19 912.49 2773.51 891.81 2748 891.81 2722.49 891.81 2701.81 912.49 2701.81 938Z" fill="#483D8B" fill-rule="evenodd"/><path d="M2332 1352C2332 1298.98 2374.98 1256 2428 1256 2481.02 1256 2524 1298.98 2524 1352 2524 1405.02 2481.02 1448 2428 1448 2374.98 1448 2332 1405.02 2332 1352ZM2381.81 1352C2381.81 1377.51 2402.49 1398.19 2428 1398.19 2453.51 1398.19 2474.19 1377.51 2474.19 1352 2474.19 1326.49 2453.51 1305.81 2428 1305.81 2402.49 1305.81 2381.81 1326.49 2381.81 1352Z" fill="#483D8B" fill-rule="evenodd"/><path d="M2971 1609C2971 1555.98 3013.98 1513 3067 1513 3120.02 1513 3163 1555.98 3163 1609 3163 1662.02 3120.02 1705 3067 1705 3013.98 1705 2971 1662.02 2971 1609ZM3020.81 1609C3020.81 1634.51 3041.49 1655.19 3067 1655.19 3092.51 1655.19 3113.19 1634.51 3113.19 1609 3113.19 1583.49 3092.51 1562.81 3067 1562.81 3041.49 1562.81 3020.81 1583.49 3020.81 1609Z" fill="#483D8B" fill-rule="evenodd"/></g></svg>